<svg xmlns="http://www.w3.org/2000/svg" width="373" height="103" fill="none" viewBox="0 0 373 103">
  <g clip-path="url(#a)">
    <path fill="#4CC2FF" d="M42.422 63.742c5.295 4.495 11.602 6.776 18.92 6.84 8.657-.13 13.03-3.316 13.16-9.56.065-5.118-2.83-8.189-8.682-9.225-2.673-.376-5.62-.803-8.811-1.27-5.723-.971-10.07-3.161-13.055-6.542-3.076-3.486-4.607-7.722-4.607-12.71 0-5.998 1.933-10.83 5.788-14.51 3.737-3.64 9.044-5.493 15.922-5.558 8.267.194 15.456 2.552 21.568 7.087l-5.619 8.537c-4.996-3.394-10.485-5.156-16.494-5.285-3.101 0-5.697.803-7.76 2.396-2.167 1.659-3.27 4.146-3.335 7.437 0 1.982.74 3.77 2.232 5.363 1.492 1.633 3.88 2.76 7.163 3.395 1.83.31 4.322.673 7.488 1.088 6.242.881 10.849 3.187 13.834 6.918 2.958 3.68 4.425 7.942 4.425 12.813C84.222 74.08 76.435 80.74 61.2 80.921c-9.85 0-18.324-3.122-25.409-9.367l6.618-7.825.013.013ZM86.05 55.89c0-5.156.416-9.107 1.234-11.88.856-2.695 2.167-4.975 3.919-6.827 1.31-1.62 3.14-3.07 5.476-4.353 2.31-1.218 5.282-1.853 8.902-1.918 3.738.065 6.774.7 9.084 1.93 2.284 1.283 4.049 2.747 5.295 4.38 1.882 1.852 3.218 4.12 4.01 6.827.752 2.76 1.142 6.711 1.142 11.854 0 5.144-.377 9.07-1.142 11.764-.792 2.695-2.128 5.04-4.01 7.009-.61.725-1.35 1.425-2.232 2.112-.792.79-1.804 1.464-3.063 2.02-2.31 1.348-5.333 2.048-9.084 2.113-3.62-.065-6.592-.765-8.902-2.112-2.349-1.218-4.166-2.604-5.476-4.146-1.765-1.982-3.076-4.314-3.92-7.009-.817-2.695-1.232-6.62-1.232-11.764Zm29.55.091c0-3.498-.156-6.037-.455-7.644-.311-1.541-.934-2.902-1.881-4.055-.701-1.101-1.739-1.969-3.115-2.59-1.31-.662-2.842-.998-4.581-.998-1.622 0-3.114.336-4.49.997-1.31.635-2.375 1.49-3.205 2.591-.83 1.166-1.415 2.514-1.79 4.055-.364 1.607-.546 4.12-.546 7.553 0 3.434.182 5.882.545 7.463.363 1.606.96 3.018 1.79 4.25.819.945 1.896 1.774 3.206 2.5 1.376.7 2.868 1.036 4.49 1.036 1.739 0 3.258-.35 4.581-1.036 1.376-.726 2.414-1.555 3.115-2.5.947-1.231 1.57-2.644 1.881-4.25.299-1.568.455-4.03.455-7.359v-.013Zm11.42-24.46h9.512V36.6c3.166-3.64 7.241-5.532 12.224-5.688 5.814.156 10.057 2.293 12.731 6.4 1.297 1.542 2.193 3.563 2.686 6.076.454 2.475.688 6.685.688 12.606 0 5.92-.234 9.911-.688 12.424-.493 2.514-1.389 4.56-2.686 6.167-1.311 1.879-3.024 3.382-5.152 4.522-2.103 1.166-4.62 1.775-7.566 1.84-2.44 0-4.607-.545-6.527-1.633-2.064-.997-3.971-2.37-5.697-4.12v24.953h-9.512V31.521h-.013Zm18.868 39.618c2.258 0 4.036-.44 5.347-1.321 1.31-.907 2.232-2.073 2.79-3.498.61-1.477 1.025-3.11 1.233-4.91.065-1.762.09-3.576.09-5.429 0-1.956-.025-3.86-.09-5.713-.221-1.853-.623-3.498-1.233-4.91a6.954 6.954 0 0 0-2.79-3.498c-1.311-.79-3.089-1.18-5.347-1.18-2.128 0-3.815.454-5.074 1.374a8.052 8.052 0 0 0-2.881 3.589c-.584 1.477-.96 3.083-1.142 4.819a55.942 55.942 0 0 0-.272 5.52c0 1.735.091 3.458.272 5.194.182 1.827.558 3.472 1.142 4.962a7.983 7.983 0 0 0 2.881 3.589c1.246.946 2.933 1.412 5.074 1.412Zm21.568-59.388h9.513v24.94h.181c3.128-3.861 7.241-5.792 12.315-5.792 3.92 0 7.514 1.425 10.758 4.276 3.219 2.889 4.906 7.125 5.062 12.709v32.467h-9.513V51.24c0-3.42-.882-6.025-2.647-7.826-1.739-1.826-3.971-2.733-6.709-2.733-2.738 0-4.996.907-6.761 2.733-1.791 1.788-2.699 4.392-2.699 7.825v29.112h-9.513v-68.6h.013Zm40.541 0h9.512v9.781h-9.512v-9.781Zm0 19.757h9.512v48.843h-9.512V31.508Zm52.025 33.503h-25.241l-5.113 15.34h-10.68l24.19-68.6h8.448l24.189 68.6h-10.641l-5.152-15.34Zm-2.881-9.211-9.629-30.018h-.182L237.701 55.8h19.44Zm19.076-24.279h9.512V36.6c3.166-3.64 7.241-5.532 12.224-5.688 5.814.156 10.058 2.293 12.731 6.4 1.298 1.542 2.193 3.563 2.686 6.076.454 2.475.688 6.685.688 12.606 0 5.92-.234 9.911-.688 12.424-.493 2.514-1.388 4.56-2.686 6.167-1.311 1.879-3.024 3.382-5.152 4.522-2.102 1.166-4.62 1.775-7.566 1.84-2.439 0-4.606-.545-6.527-1.633-2.063-.997-3.971-2.37-5.697-4.12v24.953h-9.512V31.521h-.013Zm18.868 39.618c2.258 0 4.036-.44 5.347-1.321 1.311-.907 2.232-2.073 2.79-3.498.61-1.477 1.025-3.11 1.233-4.91.065-1.762.091-3.576.091-5.429 0-1.956-.026-3.86-.091-5.713-.208-1.853-.623-3.498-1.233-4.91a6.949 6.949 0 0 0-2.79-3.498c-1.311-.79-3.089-1.18-5.347-1.18-2.128 0-3.815.454-5.074 1.374a8.058 8.058 0 0 0-2.881 3.589c-.583 1.477-.96 3.083-1.141 4.819a55.637 55.637 0 0 0-.273 5.52c0 1.735.091 3.458.273 5.194.181 1.827.558 3.472 1.141 4.962a7.99 7.99 0 0 0 2.881 3.589c1.246.946 2.933 1.412 5.074 1.412Zm21.568-39.618h9.513V36.6c3.166-3.64 7.241-5.532 12.224-5.688 5.814.156 10.057 2.293 12.73 6.4 1.298 1.542 2.194 3.563 2.687 6.076.454 2.475.687 6.685.687 12.606 0 5.92-.233 9.911-.687 12.424-.493 2.514-1.389 4.56-2.687 6.167-1.31 1.879-3.023 3.382-5.151 4.522-2.103 1.166-4.62 1.775-7.566 1.84-2.44 0-4.607-.545-6.528-1.633-2.063-.997-3.971-2.37-5.696-4.12v24.953h-9.513V31.521h-.013Zm18.869 39.618c2.258 0 4.036-.44 5.347-1.321 1.31-.907 2.232-2.073 2.79-3.498.61-1.477 1.025-3.11 1.232-4.91.065-1.762.091-3.576.091-5.429 0-1.956-.026-3.86-.091-5.713-.22-1.853-.622-3.498-1.232-4.91a6.954 6.954 0 0 0-2.79-3.498c-1.311-.79-3.089-1.18-5.347-1.18-2.128 0-3.815.454-5.074 1.374a8.052 8.052 0 0 0-2.881 3.589c-.584 1.477-.96 3.083-1.142 4.819a55.637 55.637 0 0 0-.272 5.52c0 1.735.09 3.458.272 5.194.182 1.827.558 3.472 1.142 4.962a7.983 7.983 0 0 0 2.881 3.589c1.246.946 2.933 1.412 5.074 1.412Z"/>
    <path fill="url(#b)" d="M27.59 63.897c6.006 0 10.874-4.86 10.874-10.857 0-5.996-4.868-10.856-10.874-10.856s-10.875 4.86-10.875 10.856c0 5.996 4.869 10.857 10.875 10.857Z"/>
    <path fill="url(#c)" d="M27.59 34.902a3.721 3.721 0 0 0 3.724-3.718 3.721 3.721 0 0 0-3.724-3.718 3.721 3.721 0 0 0-3.725 3.718 3.721 3.721 0 0 0 3.725 3.718Z"/>
    <path fill="url(#d)" d="M.196 64.565a5.735 5.735 0 1 0 11.078-2.968A5.735 5.735 0 0 0 .196 64.565Z"/>
    <path fill="url(#e)" d="M96.242 13.464a5.485 5.485 0 1 0 0-10.97 5.485 5.485 0 0 0 0 10.97Z"/>
    <path fill="url(#f)" d="M108.828 16.213a3.722 3.722 0 0 0-1.358-5.084 3.72 3.72 0 0 0-5.082 1.366 3.72 3.72 0 0 0 1.357 5.085 3.722 3.722 0 0 0 5.083-1.366Z"/>
  </g>
  <defs>
    <linearGradient id="b" x1="16.715" x2="32.413" y1="53.04" y2="52.859" gradientUnits="userSpaceOnUse">
      <stop stop-color="#8FE1FF"/>
      <stop offset="1" stop-color="#0F95DA"/>
    </linearGradient>
    <linearGradient id="c" x1="23.865" x2="29.242" y1="31.184" y2="31.122" gradientUnits="userSpaceOnUse">
      <stop stop-color="#8FE1FF"/>
      <stop offset="1" stop-color="#0F95DA"/>
    </linearGradient>
    <linearGradient id="d" x1="4.251" x2="6.486" y1="57.542" y2="65.513" gradientUnits="userSpaceOnUse">
      <stop stop-color="#8FE1FF"/>
      <stop offset="1" stop-color="#0F95DA"/>
    </linearGradient>
    <linearGradient id="e" x1="90.757" x2="98.675" y1="7.978" y2="7.887" gradientUnits="userSpaceOnUse">
      <stop stop-color="#8FE1FF"/>
      <stop offset="1" stop-color="#0F95DA"/>
    </linearGradient>
    <linearGradient id="f" x1="103.745" x2="106.38" y1="17.58" y2="12.893" gradientUnits="userSpaceOnUse">
      <stop stop-color="#8FE1FF"/>
      <stop offset="1" stop-color="#0F95DA"/>
    </linearGradient>
    <clipPath id="a">
      <path fill="#fff" d="M0 0h373v102.725H0z"/>
    </clipPath>
  </defs>
</svg>
