<svg xmlns="http://www.w3.org/2000/svg" fill="none" viewBox="0 0 24 24">
  <path stroke="#0078D4" stroke-linecap="round" stroke-linejoin="round" stroke-width="2" d="M9 15a1 1 0 1 0 0-2 1 1 0 0 0 0 2Zm6 0a1 1 0 1 0 0-2 1 1 0 0 0 0 2ZM7.5 9.5c3.5-1 5.5-1 9 0m-9.5 9c3.5 1 6.5 1 10 0"/>
  <path stroke="#0078D4" stroke-linecap="round" stroke-linejoin="round" stroke-width="2" d="M15.5 19c0 1 1.5 3 2 3 1.5 0 2.833-1.667 3.5-3 .667-1.667.5-5.833-1.5-11.5-1.457-1.015-3-1.34-4.5-1.5l-1 2.5M8.5 19c0 1-1.356 3-1.832 3-1.429 0-2.698-1.667-3.333-3-.635-1.667-.476-5.833 1.428-11.5C6.151 6.485 7.545 6.16 9 6l1 2.5"/>
</svg>
