<svg xmlns="http://www.w3.org/2000/svg" fill="none" viewBox="0 0 24 24">
  <path fill="#4CC2FF" d="M12 4C6.475 4 2 8.4 2 13.827c0 4.342 2.865 8.025 6.838 9.323.5.093.683-.212.683-.473 0-.233-.009-.851-.013-1.67-2.781.592-3.368-1.319-3.368-1.319-.455-1.134-1.112-1.437-1.112-1.437-.906-.61.07-.597.07-.597 1.004.069 1.531 1.013 1.531 1.013.892 1.502 2.341 1.068 2.913.817.09-.636.347-1.068.633-1.314-2.22-.246-4.555-1.09-4.555-4.856 0-1.072.388-1.949 1.03-2.636-.113-.249-.45-1.248.087-2.601 0 0 .837-.264 2.75 1.007.8-.218 1.65-.326 2.5-.332.85.005 1.7.114 2.5.332 1.9-1.27 2.737-1.007 2.737-1.007.538 1.353.2 2.352.1 2.6a3.77 3.77 0 0 1 1.025 2.637c0 3.775-2.337 4.606-4.562 4.848.35.295.675.897.675 1.818 0 1.315-.013 2.372-.013 2.69 0 .258.175.566.688.467 4-1.29 6.863-4.974 6.863-9.31C22 8.4 17.523 4 12 4Z"/>
</svg>
