<svg xmlns="http://www.w3.org/2000/svg" width="16" height="16" fill="none" viewBox="0 0 16 16">	<rect width="15" height="15" x=".5" y=".5" fill="#005FB7" stroke="#005FB7" rx="7.5"/>	<path fill="#fff" d="M6.752 3.998c0-.168.033-.328.1-.48a1.282 1.282 0 0 1 .662-.668c.152-.067.314-.1.486-.1.168 0 .328.033.48.1a1.282 1.282 0 0 1 .668.668c.067.152.1.312.1.48 0 .172-.033.334-.1.486a1.282 1.282 0 0 1-.668.668c-.148.067-.308.1-.48.1s-.334-.033-.486-.1a1.302 1.302 0 0 1-.662-.668 1.204 1.204 0 0 1-.1-.486Zm.246 8.004V8a.99.99 0 0 1 .076-.387 1.06 1.06 0 0 1 .217-.316.997.997 0 0 1 .322-.217A.929.929 0 0 1 8 6.998c.137 0 .266.027.387.082a.93.93 0 0 1 .316.217c.094.09.166.195.217.316.055.121.082.25.082.387v4.002a.929.929 0 0 1-.082.387 1.06 1.06 0 0 1-.533.533.99.99 0 0 1-.387.076.99.99 0 0 1-.387-.076 1.141 1.141 0 0 1-.322-.217 1.06 1.06 0 0 1-.217-.316.99.99 0 0 1-.076-.387Z"/></svg>