<svg xmlns="http://www.w3.org/2000/svg" fill="none" viewBox="0 0 18 18">
  <path fill="#0078D4" d="M12 7.29689V11.7334H9.42801V7.59402C9.42801 6.55418 9.056 5.84453 8.12503 5.84453C7.41435 5.84453 6.99142 6.32278 6.80536 6.78541C6.73751 6.9508 6.72004 7.181 6.72004 7.41251V11.7334H4.14719C4.14719 11.7334 4.18184 4.72267 4.14719 3.99631H6.71979V5.09301C6.71457 5.10121 6.70779 5.11005 6.70288 5.11801H6.71979V5.09301C7.06159 4.56657 7.672 3.81455 9.03828 3.81455C10.731 3.81452 12 4.92037 12 7.29689ZM1.45587 0.266663C0.575704 0.266663 0 0.843985 0 1.60318C0 2.34584 0.559048 2.94068 1.42172 2.94068H1.43891C2.33613 2.94068 2.89411 2.34595 2.89411 1.60318C2.87721 0.843985 2.33613 0.266663 1.45587 0.266663ZM0.152805 11.7334H2.72468V3.99631H0.152805V11.7334Z"/>
</svg>
