<?xml version="1.0" encoding="UTF-8"?><svg xmlns="http://www.w3.org/2000/svg" xmlns:xlink="http://www.w3.org/1999/xlink" viewBox="0 0 32 32" version="1.1"><path d="M16 4C9.383 4 4 9.383 4 16s5.383 12 12 12 12-5.383 12-12S22.617 4 16 4zm0 2c.094 0 .188.027.281.031.254.008.5.008.75.032.032.003.063-.004.094 0 .094.011.188.019.281.03.063.009.125.02.188.032.386.063.754.145 1.125.25.39.11.789.25 1.156.406.008.004.023-.004.031 0 .164.07.313.172.469.25.207.102.426.196.625.313.055.031.105.062.156.093a.917.917 0 0 1 .25.157c.004.004-.004.027 0 .031-1.648-.95-5.375 2.063-5.375 2.063-1.476-1.13-2.816-1.895-3.812-2.157-.649-.164-1.14-.129-1.469 0 .16-.101.3-.222.469-.312.011-.008.02-.024.031-.032.254-.144.516-.257.781-.375.02-.007.043-.023.063-.03.187-.083.37-.153.562-.22.172-.062.356-.105.531-.156.258-.074.516-.164.782-.218.082-.016.168-.016.25-.032.215-.039.433-.07.656-.093.031-.004.063.003.094 0A9.944 9.944 0 0 1 16 6zm6 2.594c.293 0 .637.062.938.25.039.035.09.058.125.094.054.046.105.097.156.156.14.144.277.285.406.437.027.035.066.059.094.094.078.094.144.184.218.281.122.16.231.332.344.5.18.266.348.528.5.813.145.261.29.535.407.812.007.02.023.043.03.063l.095.219c.09.23.175.48.25.718.097.313.183.614.25.938.007.043.023.082.03.125.118.613.157 1.258.157 1.906a9.984 9.984 0 0 1-2.281 6.375 8.56 8.56 0 0 1-.25.281c.476-2.515-.399-4.37-1.813-6.687-1.476-2.348-3.812-4.656-3.812-4.656 2.082-1.958 3.808-2.59 4.156-2.72zm-12.125.062c.652.043 1.328.297 1.938.688l.062.031c1.3.781 2.344 1.938 2.344 1.938-1.13 1.085-3.84 4.374-4.75 6.593-1.344 3.39-.719 4.875-.719 4.875.172-1.87 2.941-5.176 3.938-6.218.519-.61 1.53-1.594 2.312-2.375.563-.61 1.031-1.094 1.031-1.094l.875.875a67.886 67.886 0 0 1 2.844 3c.652.738 1.79 2.129 2.094 2.562 1.304 1.856 1.55 3.114 1.562 3.188-.11.12-.226.226-.343.343-.227.227-.442.454-.688.657-.246.203-.516.383-.781.562-.266.18-.528.348-.813.5-.218.117-.43.242-.656.344-.043.02-.082.043-.125.063-.273.117-.559.218-.844.312-.023.008-.039.023-.062.031a10.494 10.494 0 0 1-1.063.282c-.191.039-.398.035-.593.062A9.8 9.8 0 0 1 16.03 26c-.355 0-.718-.027-1.062-.063a9.863 9.863 0 0 1-1.906-.375c-.008-.003-.024.004-.032 0a10.098 10.098 0 0 1-2.594-1.28c-.007-.005-.023.003-.03 0a9.967 9.967 0 0 1-1.438-1.22A9.947 9.947 0 0 1 6.063 16c0-2.652 1.039-5.031 2.687-6.813 0 0 .43-.53 1.125-.53z" id="surface1"/><metadata><rdf:RDF xmlns:rdf="http://www.w3.org/1999/02/22-rdf-syntax-ns#" xmlns:rdfs="http://www.w3.org/2000/01/rdf-schema#" xmlns:dc="http://purl.org/dc/elements/1.1/"><rdf:Description about="https://iconscout.com/legal#licenses" dc:title="xbox" dc:description="xbox" dc:publisher="Iconscout" dc:date="2017-12-30" dc:format="image/svg+xml" dc:language="en"><dc:creator><rdf:Bag><rdf:li>Icons8</rdf:li></rdf:Bag></dc:creator></rdf:Description></rdf:RDF></metadata></svg>