<svg xmlns="http://www.w3.org/2000/svg" viewBox="0 0 32 32"><path d="M29 20H5.762L9.64 16.7681a1 1 0 1 0-1.28-1.5362l-6 5c-.011.0091-.015.0235-.0255.0331a.9842.9842 0 0 0-.1789.2317 1.0019 1.0019 0 0 0-.0649.0963.9595.9595 0 0 0 0 .814 1.0019 1.0019 0 0 0 .0649.0963.9842.9842 0 0 0 .1789.2317c.01.01.0145.024.0255.0331l6 5a1 1 0 0 0 1.28-1.5362L5.762 22H29a1 1 0 0 0 0-2zM29.8445 10.4967a.9842.9842 0 0 0-.1789-.2317c-.0105-.01-.0145-.024-.0255-.0331l-6-5a1 1 0 0 0-1.28 1.5362L26.238 10H3a1 1 0 0 0 0 2H26.238L22.36 15.2319a1 1 0 1 0 1.28 1.5362l6-5c.011-.0091.015-.0235.0255-.0331a.9842.9842 0 0 0 .1789-.2317 1.0019 1.0019 0 0 0 .0649-.0963.9595.9595 0 0 0 0-.814A1.0019 1.0019 0 0 0 29.8445 10.4967z"/></svg>