<?xml version="1.0" encoding="UTF-8"?><!DOCTYPE svg PUBLIC "-//W3C//DTD SVG 1.1//EN" "http://www.w3.org/Graphics/SVG/1.1/DTD/svg11.dtd"><svg xmlns="http://www.w3.org/2000/svg" xmlns:xlink="http://www.w3.org/1999/xlink" version="1.1" id="Layer_1" x="0px" y="0px" viewBox="0 0 72 72" xml:space="preserve"><path fill="#010101" d="M60.4 30.7h-3.9c-.5 0-1-.4-1-1v-9.2C55.5 9.9 47.3.9 36.7.5 25.6.1 16.4 9 16.4 20.1v9.7c0 .5-.4 1-1 1h-3.9c-1.5 0-2.7 1.2-2.7 2.7v35.4c0 1.5 1.2 2.7 2.7 2.7h48.8c1.5 0 2.7-1.2 2.7-2.7V33.4c.1-1.5-1.1-2.7-2.6-2.7zM22.5 20.1c0-7.7 6.4-13.9 14.2-13.5 7.3.4 12.9 6.6 12.9 13.9v9.3c0 .5-.4 1-1 1H23.4c-.5 0-1-.4-1-1v-9.7z"/><metadata><rdf:RDF xmlns:rdf="http://www.w3.org/1999/02/22-rdf-syntax-ns#" xmlns:rdfs="http://www.w3.org/2000/01/rdf-schema#" xmlns:dc="http://purl.org/dc/elements/1.1/"><rdf:Description about="https://iconscout.com/legal#licenses" dc:publisher="Iconscout" dc:date="2018-03-31" dc:format="image/svg+xml" dc:language="en"><dc:creator><rdf:Bag><rdf:li>Creative Stall</rdf:li></rdf:Bag></dc:creator></rdf:Description></rdf:RDF></metadata></svg>