<?xml version="1.0" encoding="UTF-8"?><svg xmlns="http://www.w3.org/2000/svg" xmlns:xlink="http://www.w3.org/1999/xlink" version="1.1" id="Layer_1" x="0px" y="0px" viewBox="0 0 52 52" xml:space="preserve"><path d="M25 49.4V26.8H6.2c2.4 7.4 7.5 17.1 18.8 22.6z"/><path d="M48 12.3c0-.3-.1-.5-.3-.7-.2-.2-.5-.3-.8-.2C29.8 13.6 27.1 3.2 27 2.6v22.2h19.3c1.9-6.9 1.7-12.3 1.7-12.5z"/><path d="M5.1 11.3c-.3 0-.6.1-.8.2-.2.2-.3.5-.3.8 0 .3-.2 5.6 1.6 12.5H25V2.7c-.3 1.1-3.3 10.8-19.9 8.6z"/><path d="M27 49v.5C38.3 44 43.5 34.3 45.8 26.9H27V49z"/><metadata><rdf:RDF xmlns:rdf="http://www.w3.org/1999/02/22-rdf-syntax-ns#" xmlns:rdfs="http://www.w3.org/2000/01/rdf-schema#" xmlns:dc="http://purl.org/dc/elements/1.1/"><rdf:Description about="https://iconscout.com/legal#licenses" dc:title="shield,security,protection,secure" dc:description="shield,security,protection,secure" dc:publisher="Iconscout" dc:date="2018-01-12" dc:format="image/svg+xml" dc:language="en"><dc:creator><rdf:Bag><rdf:li>Dinosoft Labs</rdf:li></rdf:Bag></dc:creator></rdf:Description></rdf:RDF></metadata></svg>