<?xml version="1.0" encoding="UTF-8"?><!DOCTYPE svg PUBLIC "-//W3C//DTD SVG 1.1//EN" "http://www.w3.org/Graphics/SVG/1.1/DTD/svg11.dtd"><svg xmlns="http://www.w3.org/2000/svg" xmlns:xlink="http://www.w3.org/1999/xlink" version="1.1" id="Layer_1" x="0px" y="0px" viewBox="0 0 16 16" xml:space="preserve"><path fill="#010101" d="M15.5 6.3L14.6 4l-1.8.7c-.4-.6-.9-1-1.4-1.4l.7-1.8-2.3-1-.7 1.8c-.7-.1-1.3-.1-2 0L6.3.5 4 1.4l.7 1.8c-.6.4-1 .9-1.4 1.4l-1.8-.7-1 2.3 1.8.7c-.1.7-.1 1.3 0 2l-1.8.8.9 2.3 1.8-.7c.4.6.9 1 1.4 1.4l-.7 1.8 2.3 1 .7-1.8c.7.1 1.3.1 2 0l.7 1.8 2.3-.9-.7-1.8c.6-.4 1-.9 1.4-1.4l1.8.7 1-2.3-1.8-.7c.1-.7.1-1.3 0-2l1.9-.8zm-6.4 4.4c-1.5.6-3.2-.1-3.8-1.6s.1-3.2 1.6-3.8 3.2.1 3.8 1.6c.6 1.5-.1 3.2-1.6 3.8z"/><metadata><rdf:RDF xmlns:rdf="http://www.w3.org/1999/02/22-rdf-syntax-ns#" xmlns:rdfs="http://www.w3.org/2000/01/rdf-schema#" xmlns:dc="http://purl.org/dc/elements/1.1/"><rdf:Description about="https://iconscout.com/legal#licenses" dc:publisher="Iconscout" dc:date="2018-04-11" dc:format="image/svg+xml" dc:language="en"><dc:creator><rdf:Bag><rdf:li>Creative Stall</rdf:li></rdf:Bag></dc:creator></rdf:Description></rdf:RDF></metadata></svg>