<?xml version="1.0" encoding="UTF-8"?><svg xmlns="http://www.w3.org/2000/svg" xmlns:xlink="http://www.w3.org/1999/xlink" viewBox="0 0 32 32" version="1.1"><path d="M5 6v13.563l-2.281 2.312A2.451 2.451 0 0 0 2 23.594 2.417 2.417 0 0 0 4.406 26h23.188A2.417 2.417 0 0 0 30 23.594c0-.64-.266-1.266-.719-1.719L27 19.562V6zm2 2h18v11H7zm-.563 13h19.125l2.313 2.281a.465.465 0 0 1 .125.313.385.385 0 0 1-.406.406H4.406A.385.385 0 0 1 4 23.594c0-.11.047-.235.125-.313z" id="surface1"/><metadata><rdf:RDF xmlns:rdf="http://www.w3.org/1999/02/22-rdf-syntax-ns#" xmlns:rdfs="http://www.w3.org/2000/01/rdf-schema#" xmlns:dc="http://purl.org/dc/elements/1.1/"><rdf:Description about="https://iconscout.com/legal#licenses" dc:title="laptop" dc:description="laptop" dc:publisher="Iconscout" dc:date="2017-12-21" dc:format="image/svg+xml" dc:language="en"><dc:creator><rdf:Bag><rdf:li>Icons8</rdf:li></rdf:Bag></dc:creator></rdf:Description></rdf:RDF></metadata></svg>