<?xml version="1.0" encoding="UTF-8"?><svg xmlns="http://www.w3.org/2000/svg" xmlns:xlink="http://www.w3.org/1999/xlink" version="1.1" id="Layer_1" x="0px" y="0px" viewBox="0 0 48 48" xml:space="preserve"><path d="M24 0C10.7 0 0 10.7 0 24s10.7 24 24 24 24-10.7 24-24S37.3 0 24 0zm20.6 24c0 11.4-9.2 20.6-20.6 20.6S3.4 35.4 3.4 24C3.4 12.6 12.6 3.4 24 3.4S44.6 12.6 44.6 24z"/><path d="M24 9.6c.6 0 1-.4 1-1V6.4c0-.6-.4-1-1-1s-1 .4-1 1v2.2c0 .5.4 1 1 1z"/><path d="M24 38.4c-.6 0-1 .4-1 1v2.2c0 .6.4 1 1 1s1-.4 1-1v-2.2c0-.5-.4-1-1-1z"/><path d="M39.4 25h2.2c.6 0 1-.4 1-1s-.4-1-1-1h-2.2c-.6 0-1 .4-1 1s.5 1 1 1z"/><path d="M8.6 23H6.4c-.6 0-1 .4-1 1s.4 1 1 1h2.2c.6 0 1-.4 1-1s-.5-1-1-1z"/><path d="M35.8 10.8l-1.5 1.5c-.4.4-.4 1 0 1.4.4.4 1 .4 1.4 0l1.5-1.5c.4-.4.4-1 0-1.4-.4-.4-1.1-.4-1.4 0z"/><path d="M12.4 34.2l-1.5 1.5c-.4.4-.4 1 0 1.4.4.4 1 .4 1.4 0l1.5-1.5c.4-.4.4-1 0-1.4-.4-.4-1-.4-1.4 0z"/><path d="M35.6 34.2c-.4-.4-1-.4-1.4 0-.4.4-.4 1 0 1.4l1.5 1.5c.4.4 1 .4 1.4 0 .4-.4.4-1 0-1.4l-1.5-1.5z"/><path d="M12.2 10.8c-.4-.4-1-.4-1.4 0-.4.4-.4 1 0 1.4l1.5 1.5c.4.4 1 .4 1.4 0 .4-.4.4-1 0-1.4l-1.5-1.5z"/><path d="M34.9 25c.6 0 1-.4 1-1s-.4-1-1-1h-8.6c-.3-.6-.7-1.1-1.3-1.3v-9.4c0-.6-.4-1-1-1s-1 .4-1 1v9.4c-.9.4-1.5 1.3-1.5 2.3 0 1.4 1.1 2.5 2.5 2.5 1 0 1.9-.6 2.3-1.5h8.6z"/><metadata><rdf:RDF xmlns:rdf="http://www.w3.org/1999/02/22-rdf-syntax-ns#" xmlns:rdfs="http://www.w3.org/2000/01/rdf-schema#" xmlns:dc="http://purl.org/dc/elements/1.1/"><rdf:Description about="https://iconscout.com/legal#licenses" dc:title="clock,time,keeper,timer,wall" dc:description="clock,time,keeper,timer,wall" dc:publisher="Iconscout" dc:date="2017-08-23" dc:format="image/svg+xml" dc:language="en"><dc:creator><rdf:Bag><rdf:li>Creative Stall</rdf:li></rdf:Bag></dc:creator></rdf:Description></rdf:RDF></metadata></svg>