<?xml version="1.0" encoding="UTF-8"?><svg xmlns="http://www.w3.org/2000/svg" xmlns:xlink="http://www.w3.org/1999/xlink" version="1.1" id="Layer_1" x="0px" y="0px" viewBox="-408 286.3 24 24" xml:space="preserve"><path d="M-388.4 300.9c-.2-.1-.5.1-.6.3l-1.1 2.4c0 .1-.1.2 0 .3.3 1.5-.5 3.1-1.3 4-.8.8-2.2 1.3-3.7 1.3-1.4 0-2.6-.5-3.4-1.3-.1-.1-.4-.4-.5-.8-.1.1-.2.3-.4.3h-5c-.3 0-.5-.2-.5-.5v-7c0-.3.2-.5.5-.5h5c.3 0 .5.2.5.5v6.4c.2-.4.5-.7.9-.8.1 0 .1 0 .2-.1s.3-.2.5-.4c.1-.1.1-.2.1-.3 0-.1 0-.1.1-.2.1-.2.1-.4.2-.7v-.1V300c0-.3.2-.5.5-.5h3.1l.4-1h-11.6c-.3 0-.5-.2-.5-.5v-4c0-.3.2-.5.5-.5h13.4c.1 0 .2 0 .2.1l1-2.3c.1-.1 0-.3 0-.5-.1-.1-.2-.2-.4-.2h-15.2c-1.4 0-2.5 1.1-2.5 2.5v15c0 1.4 1.1 2.5 2.5 2.5h15c1.4 0 2.5-1.1 2.5-2.5v-6.4c0-.5-.2-.7-.4-.8zm-2.3 1.2c.2 0 .3-.1.3-.3l.9-1.9-2.6-1.3-.8 1.9c-.1.1-.1.3 0 .4l.3.3c.5.2.9.4 1.3.8.1.1.2.1.3.1.2.1.2.1.3 0zm5-15.8c-.7 0-1.3.4-1.6 1l-4.4 10.4 2.6 1.3 4.9-10.3c.1-.2.2-.5.2-.8 0-.9-.8-1.6-1.7-1.6zm-9.7 16.6c-.6.6-.8 1.2-.9 1.7-.1.4-.2.7-.5 1-.6.6-.9.7-.9.7-.2.1-.3.2-.3.4s0 .3.1.5c.7.7 1.6 1 2.7 1 1.2 0 2.4-.4 3-1 1-1 1.6-3.1.5-4.2-1-1.1-2.6-1.1-3.7-.1z"/><metadata><rdf:RDF xmlns:rdf="http://www.w3.org/1999/02/22-rdf-syntax-ns#" xmlns:rdfs="http://www.w3.org/2000/01/rdf-schema#" xmlns:dc="http://purl.org/dc/elements/1.1/"><rdf:Description about="https://iconscout.com/legal#licenses" dc:title="theme" dc:description="theme" dc:publisher="Iconscout" dc:date="2018-01-06" dc:format="image/svg+xml" dc:language="en"><dc:creator><rdf:Bag><rdf:li>Icon 54</rdf:li></rdf:Bag></dc:creator></rdf:Description></rdf:RDF></metadata></svg>