<svg xmlns="http://www.w3.org/2000/svg" width="29" height="29" viewBox="0 0 29 29">
    <g fill="#FFF">
        <path d="M21.67 1.544C19.576.52 17.32 0 14.96 0c-2.326 0-4.555.506-6.626 1.504-.215.104-.345.322-.333.555.012.233.165.437.39.519 2.277.829 4.399 1.942 6.306 3.308.106.076.23.114.355.114.125 0 .25-.038.355-.114 1.88-1.346 3.967-2.447 6.205-3.27.223-.083.375-.286.387-.518.013-.232-.117-.45-.33-.554zm-6.618 3.148c-1.517-1.05-3.158-1.948-4.896-2.683 3.092-1.126 6.626-1.112 9.708.037-1.706.727-3.319 1.614-4.812 2.646z"/>
        <path d="M23.597 3.19c-.19-.154-.456-.172-.665-.044-1.41.855-3.591 2.256-5.971 4.066-.134.101-.218.256-.229.425-.01.168.052.332.172.45.84.832 1.63 1.738 2.347 2.694 3.307 4.413 4.604 7.868 5.068 10.241-1.674-3.821-4.809-7.71-9.353-11.597-.217-.186-.537-.186-.754 0-4.551 3.892-7.687 7.785-9.36 11.61.463-2.393 1.768-5.84 5.075-10.254.717-.956 1.506-1.863 2.347-2.694.12-.118.182-.283.171-.45-.01-.169-.094-.324-.228-.425C9.794 5.37 7.577 3.95 6.144 3.084c-.208-.126-.471-.109-.661.042C1.999 5.898 0 10.04 0 14.49c0 3.537 1.286 6.945 3.622 9.594.066.075.148.13.238.162.025.093.072.18.14.252C6.766 27.4 10.495 29 14.5 29c4.028 0 7.908-1.698 10.645-4.658.079-.085.129-.19.147-.3.107-.03.204-.093.28-.181C27.781 21.247 29 17.919 29 14.49c0-4.41-1.97-8.529-5.403-11.3zM3.527 22.083c-1.534-2.22-2.366-4.865-2.366-7.593 0-3.96 1.72-7.654 4.733-10.2C7.187 5.085 9 6.26 10.987 7.74c-.706.736-1.373 1.523-1.988 2.344-4.03 5.377-5.212 9.452-5.471 11.999zM14.5 27.839c-3.579 0-6.917-1.388-9.437-3.914 1.144-4.315 4.346-8.783 9.526-13.292 5.121 4.458 8.31 8.879 9.487 13.15-2.504 2.581-5.976 4.056-9.576 4.056zm5.68-17.755c-.617-.822-1.284-1.608-1.99-2.345 1.946-1.448 3.722-2.603 4.991-3.385 2.966 2.544 4.658 6.215 4.658 10.136 0 2.63-.778 5.195-2.216 7.369-.303-2.52-1.515-6.532-5.444-11.775z"/>
    </g>
</svg>
