<svg xmlns="http://www.w3.org/2000/svg" width="29" height="19" viewBox="0 0 29 19">
    <path fill="#FFF" d="M25.485 7.654c-.028-1.782-.983-3.42-2.517-4.317-1.534-.898-3.424-.926-4.984-.074C15.968.529 12.457-.639 9.213.344c-3.245.984-5.524 3.907-5.695 7.303C.965 8.782-.448 11.553.128 14.294.704 17.035 3.114 18.998 5.905 19h17.18c2.792.004 5.206-1.955 5.786-4.696.58-2.741-.833-5.515-3.386-6.65zm-2.376 10.482H5.869c-2.408.001-4.474-1.735-4.908-4.126-.434-2.39.887-4.753 3.14-5.613.181-.07.302-.243.304-.438.035-3.157 2.113-5.92 5.117-6.807 3.004-.886 6.23.314 7.945 2.955.069.105.176.177.297.202.124.027.252 0 .356-.071 1.274-.863 2.915-.948 4.269-.219s2.199 2.151 2.197 3.7V7.926c-.01.205.113.394.304.466 2.257.858 3.583 3.22 3.15 5.614-.433 2.393-2.5 4.131-4.912 4.13h-.02z"/>
</svg>
