<svg xmlns="http://www.w3.org/2000/svg" width="26" height="27" viewBox="0 0 26 27">
    <g fill="#FFF">
        <path d="M13 17.432c-2.448 0-4.432-1.984-4.432-4.432 0-2.448 1.984-4.432 4.432-4.432 2.448 0 4.432 1.984 4.432 4.432 0 2.448-1.984 4.432-4.432 4.432m0-10.046c-3.095 0-5.614 2.519-5.614 5.614 0 3.095 2.519 5.614 5.614 5.614 3.095 0 5.614-2.519 5.614-5.614 0-3.095-2.519-5.614-5.614-5.614" transform="translate(0 .5)"/>
        <path d="M24.818 13.601c0 .228-.162.427-.422.48l-1.71.409c-.62.122-1.123.575-1.308 1.176-.153.476-.344.935-.567 1.359-.297.561-.267 1.236.08 1.764l1.158 1.748c.125.19.1.443-.061.605l-.845.847c-.09.09-.212.14-.34.14-.066 0-.165-.014-.264-.079l-1.753-1.16c-.281-.185-.607-.283-.944-.283-.279 0-.56.069-.817.203-.422.224-.879.414-1.35.564-.603.188-1.057.685-1.174 1.263l-.428 1.797c-.046.223-.243.384-.47.384h-1.206c-.227 0-.424-.16-.478-.422l-.412-1.722c-.125-.615-.579-1.112-1.173-1.296-.48-.154-.937-.344-1.366-.571-.25-.131-.531-.2-.81-.2-.337 0-.663.098-.947.285L5.46 22.05c-.098.065-.197.08-.262.08-.13 0-.25-.052-.34-.141l-.846-.848c-.16-.16-.186-.415-.061-.603l1.16-1.752c.345-.525.375-1.2.08-1.759-.225-.426-.416-.885-.565-1.352-.19-.61-.692-1.063-1.264-1.174l-1.796-.428c-.222-.045-.384-.244-.384-.472V12.4c0-.228.162-.426.422-.48l1.71-.41c.62-.12 1.123-.575 1.308-1.174.153-.477.344-.935.566-1.358.3-.56.27-1.236-.079-1.766L3.951 5.462c-.125-.19-.1-.443.061-.604l.844-.845c.091-.092.213-.142.342-.142.066 0 .164.013.263.08L7.22 5.114c.28.182.605.277.94.277.278 0 .558-.068.815-.203.422-.222.879-.414 1.358-.566.601-.192 1.051-.69 1.176-1.3l.011-.06.006-.062.157-1.632c.06-.28.1-.333.34-.388h1.998c.262.084.323.179.364.355l.085 1.613.005.088.018.086c.123.61.574 1.108 1.173 1.3.48.152.937.344 1.366.57.25.13.53.2.809.2.334 0 .66-.096.948-.284l1.751-1.16c.098-.065.196-.078.262-.078.13 0 .25.05.34.14l.846.847c.16.16.186.415.061.604l-1.16 1.751c-.347.528-.376 1.204-.08 1.757.225.43.416.888.565 1.354.19.61.692 1.065 1.264 1.175l1.796.429c.222.045.384.243.384.471v1.202zm-.148-2.831l-1.757-.42c-.197-.039-.35-.184-.41-.376-.171-.535-.386-1.055-.649-1.554-.094-.177-.088-.388.023-.557l1.158-1.749c.436-.658.347-1.534-.21-2.091l-.846-.847c-.322-.321-.748-.487-1.177-.487-.318 0-.635.09-.914.276l-1.752 1.158c-.09.058-.192.087-.295.087-.09 0-.18-.022-.263-.065-.496-.263-1.015-.477-1.553-.648-.19-.06-.335-.213-.375-.41L15.56 1.38c-.158-.774-.59-1.182-1.38-1.38h-2.277c-.886.173-1.232.618-1.39 1.392l-.164 1.697c-.04.196-.185.348-.375.409-.538.171-1.057.385-1.553.648-.083.043-.173.065-.263.065-.103 0-.205-.03-.295-.087L6.112 2.965c-.279-.186-.596-.276-.914-.276-.43 0-.855.166-1.176.487l-.845.847c-.56.557-.648 1.433-.212 2.091l1.158 1.75c.111.168.117.379.023.556-.263.499-.478 1.019-.649 1.554-.06.192-.213.337-.41.376l-1.757.42C.555 10.927 0 11.609 0 12.4V13.6c0 .79.555 1.472 1.33 1.63l1.757.42c.197.037.35.184.41.374.171.537.386 1.057.649 1.553.094.178.088.39-.023.559l-1.158 1.75c-.436.657-.347 1.532.212 2.09l.845.847c.32.322.747.487 1.176.487.316 0 .635-.091.914-.275l1.752-1.159c.09-.059.191-.088.294-.088.09 0 .18.022.264.066.496.262 1.015.477 1.553.649.19.059.335.213.375.408l.419 1.758c.158.774.84 1.33 1.628 1.33h1.206c.788 0 1.47-.556 1.628-1.33l.419-1.758c.04-.195.185-.35.375-.408.538-.172 1.057-.387 1.553-.649.083-.044.174-.066.264-.066.103 0 .204.03.294.088l1.752 1.159c.279.184.598.275.914.275.43 0 .856-.165 1.177-.487l.845-.846c.558-.56.647-1.434.21-2.092l-1.157-1.749c-.111-.169-.117-.38-.023-.559.263-.496.478-1.016.649-1.553.06-.19.213-.337.41-.375l1.757-.42c.775-.157 1.33-.838 1.33-1.629V12.4c0-.79-.555-1.472-1.33-1.63z" transform="translate(0 .5)"/>
    </g>
</svg>
